# xmcd
#
# Track frame offsets:
# 150
# 5314
# 22633
# 38964
# 51784
# 59644
# 76880
# 89487
# 101814
# 123051
# 139794
# 154809
# 170801
# 184836
# 196647
# 209601
# 224377
# 235129
#
# Disc length: 3364 seconds
#
#
# Revision: 0
# Processed by: cddbd v1.5.1PL2 Copyright (c) Steve Scherf et al.
# Submitted via: FreeRIP 2.945 
#
DISCID=f30d2212
DTITLE=Wordsworth - Statements and stipulations mixtape
DYEAR=1900
DGENRE=Hip-Hop
TTITLE0=Statements and stipulations1
TTITLE1=international odyssey
TTITLE2=wordplay extraordinaire
TTITLE3=conquest of tha great remix
TTITLE4=product pusher wigged wax mix
TTITLE5=howtogetahbuzzwiggedwaxmix
TTITLE6=statements and stipulations2
TTITLE7=pleasure palace
TTITLE8=the hydrolic monster mix
TTITLE9=return of tha mic bully remix
TTITLE10=countdown remix
TTITLE11=rapper symposium remix
TTITLE12=statments and stipulations3
TTITLE13=the treatment wigged wax mix
TTITLE14=howtogetahbuzz remix
TTITLE15=the not so glamourous life
TTITLE16=kings theme remix
TTITLE17=statements and stipulations4
EXTD=
EXTT0=
EXTT1=
EXTT2=
EXTT3=
EXTT4=
EXTT5=
EXTT6=
EXTT7=
EXTT8=
EXTT9=
EXTT10=
EXTT11=
EXTT12=
EXTT13=
EXTT14=
EXTT15=
EXTT16=
EXTT17=
PLAYORDER=
